<svg width="62" height="70" viewBox="0 0 62 70" fill="none" xmlns="http://www.w3.org/2000/svg">
<rect width="62" height="70" rx="8.37838" fill="url(#paint0_linear_10025_2984)"/>
<path d="M30.3916 47.1385L43.4934 40.5367C44.0363 40.2632 44.2566 39.5953 43.9831 39.0525L40.7705 32.6767L41.7502 34.621L36.7423 24.6824C36.6105 24.4208 36.3801 24.2214 36.1006 24.1333L30.2897 22.2163C30.0077 22.1232 29.7087 22.1439 29.4472 22.2757L18.5067 27.7883C17.9639 28.0619 17.7436 28.7298 18.0171 29.2726L27.2048 47.5067C27.4783 48.0495 28.1462 48.2698 28.689 47.9963L36.338 44.1422" fill="url(#paint1_linear_10025_2984)"/>
<path d="M30.3916 47.1385L43.4934 40.5367C44.0363 40.2632 44.2566 39.5953 43.9831 39.0525L40.7705 32.6767L41.7502 34.621L36.7423 24.6824C36.6105 24.4208 36.3801 24.2214 36.1006 24.1333L30.2897 22.2163C30.0077 22.1232 29.7087 22.1439 29.4472 22.2757L18.5067 27.7883C17.9639 28.0619 17.7436 28.7298 18.0171 29.2726L27.2048 47.5067C27.4783 48.0495 28.1462 48.2698 28.689 47.9963L36.338 44.1422" stroke="#EBECFC" stroke-width="1.3577" stroke-linecap="round" stroke-linejoin="round"/>
<path d="M30.105 22.5636L31.597 25.5245C31.8705 26.0673 32.5384 26.2876 33.0812 26.0141L36.0421 24.5222" fill="url(#paint2_linear_10025_2984)"/>
<path d="M30.105 22.5636L31.597 25.5245C31.8705 26.0673 32.5384 26.2876 33.0812 26.0141L36.0421 24.5222" stroke="#EBECFC" stroke-width="1.3577" stroke-miterlimit="10" stroke-linecap="round"/>
<path d="M30.105 22.5636L31.597 25.5245C31.8705 26.0673 32.5384 26.2876 33.0812 26.0141L36.0421 24.5222" fill="url(#paint3_linear_10025_2984)"/>
<path d="M30.105 22.5636L31.597 25.5245C31.8705 26.0673 32.5384 26.2876 33.0812 26.0141L36.0421 24.5222" stroke="#EBECFC" stroke-width="1.3577" stroke-miterlimit="10" stroke-linecap="round"/>
<path d="M30.105 22.5636L31.597 25.5245C31.8705 26.0673 32.5384 26.2876 33.0812 26.0141L36.0421 24.5222" fill="url(#paint4_linear_10025_2984)"/>
<path d="M30.105 22.5636L31.597 25.5245C31.8705 26.0673 32.5384 26.2876 33.0812 26.0141L36.0421 24.5222" stroke="#EBECFC" stroke-width="1.3577" stroke-miterlimit="10" stroke-linecap="round"/>
<path d="M27.4327 49.6119L42.0263 51.1183C42.6309 51.1807 43.1767 50.7371 43.2391 50.1325L43.9722 43.0308L43.7486 45.1965L44.8913 34.1263C44.9214 33.8349 44.8349 33.5427 44.647 33.3178L40.7874 28.5696C40.6001 28.3392 40.3372 28.1954 40.0459 28.1653L27.8598 26.9074C27.2552 26.845 26.7094 27.2886 26.647 27.8933L24.5505 48.2034C24.4881 48.808 24.9317 49.3538 25.5364 49.4162L34.0562 50.2956" fill="url(#paint5_linear_10025_2984)"/>
<path d="M27.4327 49.6119L42.0263 51.1183C42.6309 51.1807 43.1767 50.7371 43.2391 50.1325L43.9722 43.0308L43.7486 45.1965L44.8913 34.1263C44.9214 33.8349 44.8349 33.5427 44.647 33.3178L40.7874 28.5696C40.6001 28.3392 40.3372 28.1954 40.0459 28.1653L27.8598 26.9074C27.2552 26.845 26.7094 27.2886 26.647 27.8933L24.5505 48.2034C24.4881 48.808 24.9317 49.3538 25.5364 49.4162L34.0562 50.2956" stroke="white" stroke-width="1.3577" stroke-linecap="round" stroke-linejoin="round"/>
<path d="M40.4446 28.7626L40.1042 32.0606C40.0418 32.6652 40.4854 33.211 41.0901 33.2734L44.388 33.6138" fill="url(#paint6_linear_10025_2984)"/>
<path d="M40.4446 28.7626L40.1042 32.0606C40.0418 32.6652 40.4854 33.211 41.0901 33.2734L44.388 33.6138" stroke="white" stroke-width="1.3577" stroke-miterlimit="10" stroke-linecap="round"/>
<path d="M40.4446 28.7626L40.1042 32.0606C40.0418 32.6652 40.4854 33.211 41.0901 33.2734L44.388 33.6138" fill="url(#paint7_linear_10025_2984)"/>
<path d="M40.4446 28.7626L40.1042 32.0606C40.0418 32.6652 40.4854 33.211 41.0901 33.2734L44.388 33.6138" stroke="white" stroke-width="1.3577" stroke-miterlimit="10" stroke-linecap="round"/>
<path d="M40.4446 28.7626L40.1042 32.0606C40.0418 32.6652 40.4854 33.211 41.0901 33.2734L44.388 33.6138" fill="url(#paint8_linear_10025_2984)"/>
<path d="M40.4446 28.7626L40.1042 32.0606C40.0418 32.6652 40.4854 33.211 41.0901 33.2734L44.388 33.6138" stroke="white" stroke-width="1.3577" stroke-miterlimit="10" stroke-linecap="round"/>
<defs>
<linearGradient id="paint0_linear_10025_2984" x1="-7.20524e-07" y1="20.3636" x2="66.7909" y2="48.4081" gradientUnits="userSpaceOnUse">
<stop stop-color="#DDE3FF"/>
<stop offset="1" stop-color="#EFC1FF"/>
</linearGradient>
<linearGradient id="paint1_linear_10025_2984" x1="20.4819" y1="34.1643" x2="42.5424" y2="32.1343" gradientUnits="userSpaceOnUse">
<stop stop-color="#DDE3FF"/>
<stop offset="1" stop-color="#EFC1FF"/>
</linearGradient>
<linearGradient id="paint2_linear_10025_2984" x1="30.6837" y1="23.7121" x2="35.7441" y2="23.5903" gradientUnits="userSpaceOnUse">
<stop stop-color="#DDE3FF"/>
<stop offset="1" stop-color="#EFC1FF"/>
</linearGradient>
<linearGradient id="paint3_linear_10025_2984" x1="30.6837" y1="23.7121" x2="35.7441" y2="23.5903" gradientUnits="userSpaceOnUse">
<stop stop-color="#DDE3FF"/>
<stop offset="1" stop-color="#EFC1FF"/>
</linearGradient>
<linearGradient id="paint4_linear_10025_2984" x1="30.6837" y1="23.7121" x2="35.7441" y2="23.5903" gradientUnits="userSpaceOnUse">
<stop stop-color="#DDE3FF"/>
<stop offset="1" stop-color="#EFC1FF"/>
</linearGradient>
<linearGradient id="paint5_linear_10025_2984" x1="26.7605" y1="26.7939" x2="47.1496" y2="30.8118" gradientUnits="userSpaceOnUse">
<stop stop-color="#6D63E6"/>
<stop offset="1" stop-color="#A869E9"/>
</linearGradient>
<linearGradient id="paint6_linear_10025_2984" x1="40.4446" y1="28.7626" x2="45.2147" y2="29.7951" gradientUnits="userSpaceOnUse">
<stop stop-color="#6D63E6"/>
<stop offset="1" stop-color="#A869E9"/>
</linearGradient>
<linearGradient id="paint7_linear_10025_2984" x1="40.4446" y1="28.7626" x2="45.2147" y2="29.7951" gradientUnits="userSpaceOnUse">
<stop stop-color="#6D63E6"/>
<stop offset="1" stop-color="#A869E9"/>
</linearGradient>
<linearGradient id="paint8_linear_10025_2984" x1="40.4446" y1="28.7626" x2="45.2147" y2="29.7951" gradientUnits="userSpaceOnUse">
<stop stop-color="#6D63E6"/>
<stop offset="1" stop-color="#A869E9"/>
</linearGradient>
</defs>
</svg>
