<svg width="8" height="10" viewBox="0 0 8 10" fill="none" xmlns="http://www.w3.org/2000/svg">
<g clip-path="url(#clip0_2987_4694)">
<path d="M6.78832 10C7.37835 10 7.85888 9.51946 7.85888 8.92944V2.14112C7.85888 2.0438 7.82238 1.95255 7.75547 1.88564L5.96715 0.103406C5.93674 0.0729927 5.89416 0.0425791 5.85158 0.0243309C5.809 0.00608272 5.76034 0 5.71776 0H1.07056C0.480535 0 0 0.480535 0 1.07056V8.92944C0 9.51946 0.480535 10 1.07056 10H6.78832Z" fill="#175F94"/>
<path d="M1 8.66525V1.33475C1 1.15319 1.14745 1 1.33459 1L5 1V2.33333C5 2.51489 5 3 5.6673 3H7V8.66525C7 8.84681 6.85255 9 6.66541 9H1.33459C1.15312 9 1 8.85248 1 8.66525Z" fill="#B7DFFC"/>
</g>
<defs>
<clipPath id="clip0_2987_4694">
<rect width="7.85888" height="10" fill="white"/>
</clipPath>
</defs>
</svg>
