<svg width="13" height="16" viewBox="0 0 13 16" fill="none" xmlns="http://www.w3.org/2000/svg">
<g clip-path="url(#clip0_3389_22)">
<path d="M10.8613 16C11.8054 16 12.5742 15.2311 12.5742 14.2871V3.42579C12.5742 3.27007 12.5158 3.12409 12.4088 3.01703L9.54745 0.16545C9.49878 0.116788 9.43066 0.0681265 9.36253 0.0389294C9.2944 0.00973236 9.21654 0 9.14842 0H1.7129C0.768856 0 0 0.768856 0 1.7129V14.2871C0 15.2311 0.768856 16 1.7129 16H10.8613Z" fill="#175F94"/>
<path d="M1.6 13.8645V2.1357C1.6 1.8452 1.83592 1.6001 2.13535 1.6001L8 1.6001V3.73343C8 4.02393 8 4.8001 9.06767 4.8001H11.2V13.8645C11.2 14.155 10.9641 14.4001 10.6646 14.4001H2.13535C1.84499 14.4001 1.6 14.1641 1.6 13.8645Z" fill="#B7DFFC"/>
</g>
<defs>
<clipPath id="clip0_3389_22">
<rect width="12.5742" height="16" fill="white"/>
</clipPath>
</defs>
</svg>
