<svg width="18" height="12" viewBox="0 0 18 12" fill="none" xmlns="http://www.w3.org/2000/svg">
    <path fill-rule="evenodd" clip-rule="evenodd" d="M8.56701 11C5.10919 11 2.14714 9.29275 0.254408 6.39016L0 6L0.254408 5.60984C2.14714 2.70725 5.10919 1 8.56701 1C12.0248 1 14.9869 2.70725 16.8796 5.60984L17.134 6L16.8796 6.39016C14.9869 9.29275 12.0248 11 8.56701 11ZM8.56701 9.57143C11.3702 9.57143 13.7782 8.26919 15.4153 6C13.7782 3.73081 11.3702 2.42857 8.56701 2.42857C5.76378 2.42857 3.35579 3.73081 1.71868 6C3.35579 8.26919 5.76378 9.57143 8.56701 9.57143ZM8.56701 8.85714C6.98906 8.85714 5.70987 7.57796 5.70987 6C5.70987 4.42204 6.98906 3.14286 8.56701 3.14286C10.145 3.14286 11.4242 4.42204 11.4242 6C11.4242 7.57796 10.145 8.85714 8.56701 8.85714ZM8.56701 7.42857C9.35599 7.42857 9.99559 6.78898 9.99559 6C9.99559 5.21102 9.35599 4.57143 8.56701 4.57143C7.77804 4.57143 7.13844 5.21102 7.13844 6C7.13844 6.78898 7.77804 7.42857 8.56701 7.42857Z" fill="#222222"/>
    <path d="M2 1L15 11" stroke="#222222" stroke-width="1.5" stroke-linecap="round"/>
</svg>
