<svg width="16" height="16" viewBox="0 0 16 16" fill="none" xmlns="http://www.w3.org/2000/svg">
<g clip-path="url(#clip0_1_1682)">
<path d="M8.00018 15.4088C12.092 15.4088 15.409 12.0918 15.409 7.99998C15.409 3.90818 12.092 0.591114 8.00018 0.591114C3.90837 0.591114 0.591309 3.90818 0.591309 7.99998C0.591309 12.0918 3.90837 15.4088 8.00018 15.4088Z" stroke="#242424" stroke-width="1.18227" stroke-linecap="round" stroke-linejoin="round"/>
<path d="M8.00018 15.4088C12.092 15.4088 15.409 12.0918 15.409 7.99998C15.409 3.90818 12.092 0.591114 8.00018 0.591114C3.90837 0.591114 0.591309 3.90818 0.591309 7.99998C0.591309 12.0918 3.90837 15.4088 8.00018 15.4088Z" stroke="#242424" stroke-width="1.2" stroke-linecap="round" stroke-linejoin="round"/>
<path d="M7.99999 5.12313C8.44399 5.12313 8.80393 4.7632 8.80393 4.31919C8.80393 3.87519 8.44399 3.51525 7.99999 3.51525C7.55598 3.51525 7.19604 3.87519 7.19604 4.31919C7.19604 4.7632 7.55598 5.12313 7.99999 5.12313Z" fill="#242424"/>
<path d="M8 6.46304V11.9645" stroke="#242424" stroke-width="1.2" stroke-linecap="round" stroke-linejoin="round"/>
</g>
<defs>
<clipPath id="clip0_1_1682">
<rect width="16" height="16" fill="white"/>
</clipPath>
</defs>
</svg>
