<svg width="15" height="15" viewBox="0 0 15 15" fill="none" xmlns="http://www.w3.org/2000/svg">
<path d="M4.98633 8.29492H2.78992C2.85041 9.18371 3.17615 10.0446 3.67872 10.7891C4.18129 10.4634 4.71643 10.1935 5.27949 9.98875C5.10266 9.42569 5.01425 8.86263 4.98167 8.29492H4.98633Z" fill="#616161"/>
<path d="M5.27949 5.74081C4.71643 5.53141 4.18129 5.26617 3.67872 4.94043C3.17615 5.68031 2.84576 6.54119 2.78992 7.43463H4.98633C5.01425 6.87158 5.10731 6.27595 5.28414 5.74081H5.27949Z" fill="#616161"/>
<path d="M4.21033 11.4122C4.9223 12.1242 5.84367 12.6593 6.82089 12.8687C6.28575 12.2452 5.83902 11.5332 5.54586 10.7607C5.07121 10.9376 4.62448 11.147 4.21033 11.4122Z" fill="#616161"/>
<path d="M6.82089 2.80371C5.87159 3.04103 4.97814 3.51568 4.29874 4.19972C4.27082 4.22764 4.23825 4.26021 4.21033 4.28813C4.62448 4.55338 5.07121 4.76278 5.54586 4.93961C5.84367 4.16715 6.25783 3.45518 6.82089 2.80371Z" fill="#616161"/>
<path d="M7.50892 5.32678V3.2793C7.03427 3.87493 6.64804 4.49848 6.35022 5.17787C6.73645 5.26628 7.12269 5.32678 7.50892 5.32678Z" fill="#616161"/>
<path d="M5.81421 7.43502H7.50805V6.18792C7.0334 6.16 6.55875 6.0995 6.08411 5.97852C5.9352 6.45316 5.84678 6.9278 5.81886 7.43502H5.81421Z" fill="#616161"/>
<path d="M6.08411 9.7192C6.55875 9.59821 7.0334 9.54237 7.50805 9.5098V8.2627H5.81421C5.84213 8.76526 5.9352 9.27248 6.07945 9.7192H6.08411Z" fill="#616161"/>
<path d="M7.5088 12.3903V10.3428C7.12256 10.3707 6.73633 10.4312 6.3501 10.5196C6.61534 11.2316 7.03415 11.8551 7.5088 12.3903Z" fill="#616161"/>
<path d="M8.3689 10.375V12.3341C8.81562 11.7989 9.20186 11.1754 9.4671 10.5239C9.08087 10.4355 8.72721 10.4029 8.3689 10.375Z" fill="#616161"/>
<path d="M8.3689 3.2793V5.32678C8.72721 5.32678 9.10879 5.26628 9.49502 5.17787C9.1972 4.49383 8.81097 3.87027 8.3689 3.2793Z" fill="#616161"/>
<path d="M9.97282 8.26758H8.33948V9.51468C8.81413 9.5426 9.28877 9.60309 9.7355 9.72408C9.85649 9.24944 9.9449 8.7748 9.97282 8.26758Z" fill="#616161"/>
<path d="M9.76342 5.97852C9.28877 6.0995 8.81413 6.15534 8.33948 6.18792V7.43502H9.97282C9.97282 6.93246 9.88441 6.45316 9.76342 5.97852Z" fill="#616161"/>
<path d="M8.96716 12.9253C10.0049 12.7159 10.9542 12.2133 11.6708 11.4409C11.2241 11.1431 10.7494 10.9383 10.2748 10.7568C9.94903 11.5293 9.5023 12.2692 8.96716 12.9253Z" fill="#616161"/>
<path d="M11.6659 4.28813C10.9539 3.54825 10.0651 3.01311 9.0553 2.80371C9.55787 3.45518 10.0046 4.16715 10.3024 4.93961C10.7771 4.7907 11.2238 4.55338 11.6659 4.28813Z" fill="#616161"/>
<path d="M10.5637 9.95652C11.1268 10.1659 11.6898 10.4312 12.1971 10.7569C12.6996 10.017 13.03 9.15614 13.0859 8.2627H10.829C10.7685 8.85833 10.6801 9.42138 10.5637 9.95652Z" fill="#616161"/>
<path d="M10.829 7.43463H13.0859C13.0254 6.54584 12.6996 5.68497 12.1971 4.94043C11.6945 5.26617 11.1268 5.53606 10.5637 5.74081C10.7126 6.30387 10.801 6.86692 10.829 7.43463Z" fill="#616161"/>
<path d="M14.8997 7.88133C14.8997 4.22843 12.0797 1.19909 8.45934 0.905931C4.60167 0.608115 1.24656 3.48855 0.920823 7.31827C0.623005 11.1759 3.50346 14.531 7.33322 14.8567H8.37093C11.9913 14.6194 14.8997 11.5621 14.8997 7.88133ZM3.26614 11.5901C1.51646 9.39367 1.51646 6.27592 3.26614 4.10745C5.55096 1.1386 10.3626 1.1386 12.6195 4.10745C14.3692 6.30384 14.3692 9.42159 12.6195 11.5901C10.3626 14.5589 5.49512 14.531 3.26614 11.5901Z" fill="#616161"/>
</svg>
