<svg width="30" height="30" viewBox="0 0 30 30" fill="none" xmlns="http://www.w3.org/2000/svg">
<g clip-path="url(#clip0_2873_17954)">
<path d="M17.9918 14.4867C17.9918 14.171 17.7353 13.9194 17.4245 13.9194H10.2616C9.94592 13.9194 9.69434 14.176 9.69434 14.4867C9.69434 14.7975 9.95086 15.054 10.2616 15.054H17.4245C17.7402 15.054 17.9918 14.7975 17.9918 14.4867Z" fill="white"/>
<path d="M10.2616 17.0344C9.94592 17.0344 9.69434 17.2909 9.69434 17.6017C9.69434 17.9125 9.95086 18.169 10.2616 18.169H15.9939C16.3096 18.169 16.5612 17.9125 16.5612 17.6017C16.5612 17.2909 16.3047 17.0344 15.9939 17.0344H10.2616Z" fill="white"/>
<path d="M13.5619 20.1519H10.2616C9.94592 20.1519 9.69434 20.4084 9.69434 20.7192C9.69434 21.0299 9.95086 21.2865 10.2616 21.2865H13.5619C13.8776 21.2865 14.1292 21.0299 14.1292 20.7192C14.1292 20.4084 13.8727 20.1519 13.5619 20.1519Z" fill="white"/>
<path d="M13.3742 23.2684H8.9788C7.89845 23.2684 7.02036 22.3903 7.02036 21.3099V11.937H20.6555V13.2739C20.6555 13.5896 20.912 13.8412 21.2228 13.8412C21.5336 13.8412 21.7901 13.5847 21.7901 13.2739V9.32738C21.7901 7.62053 20.4039 6.23432 18.697 6.23432H18.2728V6.16033C18.2728 5.84461 18.0163 5.59302 17.7055 5.59302C17.3947 5.59302 17.1382 5.84954 17.1382 6.16033V6.23432H14.4052V6.16033C14.4052 5.84461 14.1487 5.59302 13.8379 5.59302C13.5271 5.59302 13.2706 5.84954 13.2706 6.16033V6.23432H10.5377V6.16033C10.5377 5.84461 10.2811 5.59302 9.97036 5.59302C9.65957 5.59302 9.40305 5.84954 9.40305 6.16033V6.23432H8.9788C7.27195 6.23926 5.88574 7.62546 5.88574 9.33232V21.3148C5.88574 23.0217 7.27195 24.4079 8.9788 24.4079H13.3742C13.6899 24.4079 13.9415 24.1514 13.9415 23.8406C13.9415 23.5298 13.685 23.2733 13.3742 23.2733V23.2684ZM8.9788 7.37387H9.40305V7.4528C9.40305 7.76852 9.65957 8.02011 9.97036 8.02011C10.2811 8.02011 10.5377 7.76359 10.5377 7.4528V7.37387H13.2706V7.4528C13.2706 7.76852 13.5271 8.02011 13.8379 8.02011C14.1487 8.02011 14.4052 7.76359 14.4052 7.4528V7.37387H17.1382V7.4528C17.1382 7.76852 17.3947 8.02011 17.7055 8.02011C18.0163 8.02011 18.2728 7.76359 18.2728 7.4528V7.37387H18.697C19.7774 7.37387 20.6555 8.25196 20.6555 9.33232V10.8024H7.02036V9.33232C7.02036 8.25196 7.89845 7.37387 8.9788 7.37387Z" fill="white"/>
<path d="M23.4825 15.4739C22.6439 14.6353 21.2774 14.6353 20.4388 15.4739L15.4909 20.4219C15.3232 20.5896 15.2146 20.8017 15.1752 21.0336L14.8841 22.7651C14.8249 23.1252 14.9433 23.4952 15.1998 23.7517C15.412 23.9638 15.703 24.0822 16.0039 24.0822C16.0681 24.0822 16.1273 24.0822 16.1914 24.0674L17.9229 23.7764C18.1548 23.7369 18.3669 23.6284 18.5346 23.4606L23.4825 18.5127C24.3212 17.6741 24.3212 16.3126 23.4825 15.4739ZM17.7305 22.6615L16.0039 22.9575L16.295 21.2259L19.7531 17.7678L21.1886 19.2034L17.7305 22.6615ZM22.6784 17.7136L21.9927 18.3993L20.5572 16.9637L21.2429 16.278C21.4402 16.0807 21.7017 15.9821 21.9582 15.9821C22.2147 15.9821 22.4762 16.0807 22.6735 16.278C23.0682 16.6727 23.0682 17.3189 22.6735 17.7136H22.6784Z" fill="white"/>
</g>
<defs>
<clipPath id="clip0_2873_17954">
<rect width="18.2278" height="18.8149" fill="white" transform="translate(5.88574 5.59253)"/>
</clipPath>
</defs>
</svg>
