<svg width="40" height="40" viewBox="0 0 40 40" fill="none" xmlns="http://www.w3.org/2000/svg">
<circle cx="20" cy="20" r="19.5" fill="#616161" stroke="#242424"/>
<path d="M22.6667 26.2224C22.6667 27.698 21.4756 28.8891 20 28.8891C18.5244 28.8891 17.3333 27.698 17.3333 26.2224M13.7778 21.778V17.3336C13.7778 13.8936 16.56 11.1113 20 11.1113C23.44 11.1113 26.2222 13.8936 26.2222 17.3336V21.778C27.2 21.778 28 22.578 28 23.5558C28 24.5336 27.2 25.3336 26.2222 25.3336H13.7778C12.8 25.3336 12 24.5336 12 23.5558C12 22.578 12.8 21.778 13.7778 21.778Z" stroke="white" stroke-width="1.33333" stroke-linecap="round" stroke-linejoin="round"/>
</svg>
