<svg width="30" height="30" viewBox="0 0 30 30" fill="none" xmlns="http://www.w3.org/2000/svg">
<path d="M19.3623 5.96362V8.47296C19.3623 8.93301 19.7387 9.30941 20.1988 9.30941H22.7081" stroke="white" stroke-miterlimit="10" stroke-linecap="round"/>
<path d="M19.3623 5.96362V8.47296C19.3623 8.93301 19.7387 9.30941 20.1988 9.30941H22.7081" stroke="white" stroke-miterlimit="10" stroke-linecap="round"/>
<path d="M19.3623 5.96362V8.47296C19.3623 8.93301 19.7387 9.30941 20.1988 9.30941H22.7081" stroke="white" stroke-miterlimit="10" stroke-linecap="round"/>
<path d="M9.7427 22.6717C9.28265 22.6717 8.90625 22.2953 8.90625 21.8352V6.38186C8.90625 5.92181 9.28265 5.54541 9.7427 5.54541H19.0147C19.2364 5.54541 19.4497 5.63324 19.6044 5.79216L22.8791 9.06685C23.038 9.22578 23.1258 9.43489 23.1258 9.65655V21.8352C23.1258 22.2953 22.7494 22.6717 22.2894 22.6717H9.7427Z" stroke="white" stroke-miterlimit="10" stroke-linecap="round"/>
<path d="M20.2572 24.4543H7.71047C7.25042 24.4543 6.87402 24.0779 6.87402 23.6179V8.1687" stroke="white" stroke-miterlimit="10" stroke-linecap="round"/>
<path d="M10.998 11.8069H21.094" stroke="white" stroke-miterlimit="10" stroke-linecap="round"/>
<path d="M10.998 14.3167H21.094" stroke="white" stroke-miterlimit="10" stroke-linecap="round"/>
<path d="M10.998 16.8267H16.4935" stroke="white" stroke-miterlimit="10" stroke-linecap="round"/>
<path d="M10.998 19.3342H15.5985" stroke="white" stroke-miterlimit="10" stroke-linecap="round"/>
</svg>
