<svg width="30" height="30" viewBox="0 0 30 30" fill="none" xmlns="http://www.w3.org/2000/svg">
<path d="M17.8281 6.14844V8.85976C17.8281 9.35684 18.2348 9.76354 18.7319 9.76354H21.4432" stroke="white" stroke-miterlimit="10" stroke-linecap="round"/>
<path d="M17.8281 6.14844V8.85976C17.8281 9.35684 18.2348 9.76354 18.7319 9.76354H21.4432" stroke="white" stroke-miterlimit="10" stroke-linecap="round"/>
<path d="M17.8281 6.14844V8.85976C17.8281 9.35684 18.2348 9.76354 18.7319 9.76354H21.4432" stroke="white" stroke-miterlimit="10" stroke-linecap="round"/>
<path d="M21.8954 15.1726V10.1386C21.8954 9.89908 21.8005 9.66862 21.6288 9.50142L18.0905 5.96315C17.9188 5.79143 17.6929 5.69653 17.4534 5.69653H7.43502C6.93795 5.69653 6.53125 6.10323 6.53125 6.60031V23.2975C6.53125 23.7946 6.93795 24.2013 7.43502 24.2013H14.8912" stroke="white" stroke-miterlimit="10" stroke-linecap="round"/>
<path d="M8.79102 12.009H19.6996" stroke="white" stroke-miterlimit="10" stroke-linecap="round"/>
<path d="M8.79102 14.7214H19.6996" stroke="white" stroke-miterlimit="10" stroke-linecap="round"/>
<path d="M8.79102 17.4316H14.7288" stroke="white" stroke-miterlimit="10" stroke-linecap="round"/>
<path d="M8.79102 20.144H13.7618" stroke="white" stroke-miterlimit="10" stroke-linecap="round"/>
<path d="M19.8439 24.3034C21.8454 24.3034 23.468 22.6809 23.468 20.6793C23.468 18.6778 21.8454 17.0552 19.8439 17.0552C17.8423 17.0552 16.2197 18.6778 16.2197 20.6793C16.2197 22.6809 17.8423 24.3034 19.8439 24.3034Z" stroke="white" stroke-miterlimit="10" stroke-linecap="round"/>
<path d="M19.8438 22.6995V20.8423" stroke="white" stroke-miterlimit="10" stroke-linecap="round"/>
<path d="M19.8442 19.8072C20.1561 19.8072 20.409 19.5543 20.409 19.2423C20.409 18.9304 20.1561 18.6775 19.8442 18.6775C19.5322 18.6775 19.2793 18.9304 19.2793 19.2423C19.2793 19.5543 19.5322 19.8072 19.8442 19.8072Z" fill="white"/>
</svg>
