<svg width="18" height="10" viewBox="0 0 18 10" fill="none" xmlns="http://www.w3.org/2000/svg">
    <path fill-rule="evenodd" clip-rule="evenodd" d="M8.56701 10C5.10919 10 2.14714 8.29275 0.254408 5.39016L0 5L0.254408 4.60984C2.14714 1.70725 5.10919 0 8.56701 0C12.0248 0 14.9869 1.70725 16.8796 4.60984L17.134 5L16.8796 5.39016C14.9869 8.29275 12.0248 10 8.56701 10ZM8.56701 8.57143C11.3702 8.57143 13.7782 7.26919 15.4153 5C13.7782 2.73081 11.3702 1.42857 8.56701 1.42857C5.76378 1.42857 3.35579 2.73081 1.71868 5C3.35579 7.26919 5.76378 8.57143 8.56701 8.57143ZM8.56701 7.85714C6.98906 7.85714 5.70987 6.57796 5.70987 5C5.70987 3.42204 6.98906 2.14286 8.56701 2.14286C10.145 2.14286 11.4242 3.42204 11.4242 5C11.4242 6.57796 10.145 7.85714 8.56701 7.85714ZM8.56701 6.42857C9.35599 6.42857 9.99559 5.78898 9.99559 5C9.99559 4.21102 9.35599 3.57143 8.56701 3.57143C7.77804 3.57143 7.13844 4.21102 7.13844 5C7.13844 5.78898 7.77804 6.42857 8.56701 6.42857Z" fill="#222222"/>
</svg>
