<svg width="18" height="18" viewBox="0 0 18 18" fill="none" xmlns="http://www.w3.org/2000/svg">
<g clip-path="url(#clip0_2985_4676)">
<path fill-rule="evenodd" clip-rule="evenodd" d="M10.5325 0C10.2272 0 9.96893 0.223092 9.92196 0.528376C9.85151 0.880626 10.0863 1.22114 10.4386 1.29159C11.9533 1.58513 13.3388 2.3366 14.4308 3.41683C16.92 5.90607 17.4249 9.73386 15.6871 12.775C15.511 13.0802 15.6167 13.4795 15.922 13.6556C16.2272 13.8317 16.6265 13.726 16.8026 13.4207C18.8339 9.86301 18.2351 5.38943 15.3349 2.48924C14.0668 1.22113 12.4464 0.363992 10.6852 0.0117417C10.6382 0.0117417 10.5912 0 10.5443 0H10.5325ZM6.75171 0.105675C6.75171 0.105675 6.68126 0.105675 6.64603 0.129159C5.07265 0.540117 3.64016 1.35029 2.50122 2.50098C1.35053 3.63992 0.528615 5.07241 0.129398 6.64579C0.0354643 6.9863 0.246815 7.35029 0.587323 7.43249C0.939574 7.52642 1.29182 7.31507 1.37402 6.96282C1.72627 5.62427 2.43077 4.39139 3.40533 3.40509C4.39163 2.41879 5.61276 1.72603 6.96306 1.37378C7.30357 1.27984 7.51492 0.927593 7.42098 0.587084C7.33879 0.2818 7.05699 0.0704501 6.73997 0.0939335L6.75171 0.105675ZM9.00611 2.9589C5.68321 2.9589 2.97089 5.67123 2.97089 8.99413C2.97089 12.317 5.68321 15.0294 9.00611 15.0294C12.329 15.0294 15.0413 12.317 15.0413 8.99413C15.0413 5.67123 12.329 2.9589 9.00611 2.9589ZM0.669515 9.90998C0.669515 9.90998 0.575582 9.90998 0.528615 9.90998C0.176364 9.98043 -0.0467275 10.3209 0.0237226 10.6732C0.375973 12.4344 1.23312 14.0548 2.51296 15.3229C5.40141 18.2114 9.88674 18.8102 13.4327 16.7906C13.738 16.6145 13.8554 16.2153 13.6793 15.91C13.5032 15.593 13.104 15.4873 12.7987 15.6634C9.74584 17.4012 5.91805 16.8963 3.44055 14.407C2.34858 13.3151 1.60885 11.9296 1.30357 10.4149C1.24486 10.1213 0.986541 9.89824 0.681257 9.89824L0.669515 9.90998Z" fill="#242424"/>
</g>
<defs>
<clipPath id="clip0_2985_4676">
<rect width="18" height="18" fill="white"/>
</clipPath>
</defs>
</svg>
