<svg width="30" height="30" viewBox="0 0 30 30" fill="none" xmlns="http://www.w3.org/2000/svg">
<path fill-rule="evenodd" clip-rule="evenodd" d="M9.80171 6.00908L9.38088 4.7056H9.38209C9.23257 4.24257 8.57058 4.24016 8.42106 4.7056L8.00023 6.00908L6.66419 6.00667C6.1264 5.98738 5.9407 6.63731 6.33139 6.92188L7.44194 7.72254L7.01629 9.02361C6.86677 9.48664 7.39853 9.87492 7.79283 9.58793L8.89977 8.78124L9.97414 9.56623C10.4022 9.90144 10.9352 9.48182 10.7857 9.02361L10.36 7.72254L11.4694 6.92188L11.4669 6.91947C11.86 6.6349 11.6587 6.00667 11.1715 6.00667L9.80171 6.00908ZM8.89856 6.50347L8.95162 6.66866C9.06376 7.01714 9.35918 7.01955 9.60637 7.01714C9.22895 7.29207 9.19398 7.41385 9.33506 7.85036C8.96006 7.57664 8.83465 7.58146 8.46206 7.85036C8.60796 7.40782 8.56576 7.28845 8.19316 7.01714C8.44879 7.01955 8.73578 7.01232 8.8455 6.66866H8.84792L8.89856 6.50347ZM8.89894 12.1341C11.3009 12.1341 12.5224 15.0558 10.8174 16.7632C9.10634 18.4743 6.18828 17.2395 6.18828 14.8448C6.18828 13.3496 7.40374 12.1341 8.89894 12.1341ZM10.1023 13.6462C9.0352 12.5815 7.20237 13.3375 7.20237 14.846C7.20237 16.3545 9.03882 17.1105 10.1023 16.0458C10.7643 15.3838 10.7619 14.3082 10.1023 13.6462ZM8.89872 20.2178C11.3007 20.2178 12.5222 23.1395 10.8172 24.8469C9.10612 26.558 6.18805 25.3208 6.18805 22.9285C6.18805 21.4309 7.40351 20.2178 8.89872 20.2178ZM10.1021 21.7287C9.03497 20.664 7.20214 21.42 7.20214 22.9285C7.20214 24.437 9.03859 25.193 10.1021 24.1283C10.7641 23.4663 10.7617 22.3907 10.1021 21.7287ZM13.8962 7.12492C13.2306 7.12492 13.2306 6.11083 13.8962 6.11083H20.8031C21.4711 6.11083 21.4711 7.12492 20.8031 7.12492H13.8962ZM13.8961 21.4681C13.2305 21.4681 13.2305 22.4822 13.8961 22.4822H20.803C21.471 22.4822 21.471 21.4681 20.803 21.4681H13.8961ZM13.8962 14.2518C13.2306 14.2518 13.2306 13.2378 13.8962 13.2378H20.8031C21.4711 13.2378 21.4711 14.2518 20.8031 14.2518H13.8962ZM13.8962 15.4406C13.2306 15.4406 13.2306 16.4547 13.8962 16.4547H20.8031C21.4711 16.4547 21.4711 15.4406 20.8031 15.4406H13.8962ZM13.8961 24.5382C13.2305 24.5382 13.2305 23.5241 13.8961 23.5241H23.3762C24.0442 23.5241 24.0442 24.5382 23.3762 24.5382H13.8961ZM13.8962 8.31366C13.2306 8.31366 13.2306 9.32775 13.8962 9.32775H23.3763C24.0443 9.32775 24.0443 8.31366 23.3763 8.31366H13.8962Z" fill="white"/>
</svg>
