<svg width="30" height="30" viewBox="0 0 30 30" fill="none" xmlns="http://www.w3.org/2000/svg">
<path d="M15.0004 23.5444C19.7192 23.5444 23.5447 19.719 23.5447 15.0001C23.5447 10.2812 19.7192 6.45581 15.0004 6.45581C10.2815 6.45581 6.45605 10.2812 6.45605 15.0001C6.45605 19.719 10.2815 23.5444 15.0004 23.5444Z" stroke="white" stroke-linecap="round" stroke-linejoin="round"/>
<path d="M11.6094 12.7005C11.6094 12.2733 11.7457 11.837 12.0275 11.3916C12.3002 10.9553 12.7092 10.5826 13.2364 10.3008C13.7636 10.0099 14.3817 9.8645 15.0907 9.8645C15.7452 9.8645 16.3269 9.98267 16.8269 10.2281C17.3268 10.4735 17.7176 10.8007 17.9903 11.2098C18.263 11.6279 18.3994 12.0733 18.3994 12.5641C18.3994 12.9459 18.3176 13.2822 18.163 13.5731C18.0085 13.864 17.8176 14.1094 17.6086 14.3184C17.3904 14.5275 17.0086 14.882 16.4542 15.3819C16.2997 15.5183 16.1815 15.6455 16.0815 15.7546C15.9906 15.8637 15.9179 15.9546 15.8724 16.0455C15.827 16.1364 15.7906 16.2182 15.7634 16.3091C15.7361 16.4 15.6997 16.5545 15.6543 16.7727C15.5725 17.2453 15.2998 17.4817 14.8453 17.4817C14.609 17.4817 14.409 17.4089 14.2545 17.2544C14.0909 17.0999 14.0181 16.8726 14.0181 16.5727C14.0181 16.1909 14.0727 15.8637 14.1908 15.591C14.309 15.3092 14.4635 15.0729 14.6544 14.8547C14.8453 14.6457 15.1089 14.3912 15.4452 14.1094C15.7361 13.8549 15.9452 13.664 16.0724 13.5367C16.1997 13.4095 16.3087 13.264 16.3996 13.1095C16.4905 12.955 16.536 12.7823 16.536 12.5914C16.536 12.2278 16.3996 11.9279 16.136 11.6733C15.8724 11.4188 15.5179 11.3007 15.0998 11.3007C14.5999 11.3007 14.2363 11.4279 14 11.6733C13.7636 11.9279 13.5637 12.2914 13.4 12.7823C13.2455 13.2913 12.9546 13.5458 12.5274 13.5458C12.2729 13.5458 12.0639 13.4549 11.8821 13.2822C11.7094 13.1004 11.6185 12.9095 11.6185 12.7005H11.6094ZM14.918 20.1268C14.6453 20.1268 14.3999 20.0359 14.1999 19.8632C13.9909 19.6814 13.8909 19.4359 13.8909 19.1178C13.8909 18.836 13.9909 18.5906 14.1908 18.3997C14.3908 18.2088 14.6362 18.1088 14.9271 18.1088C15.218 18.1088 15.4543 18.2088 15.6452 18.3997C15.8361 18.5906 15.9361 18.836 15.9361 19.1178C15.9361 19.4359 15.8361 19.6814 15.6361 19.8632C15.4361 20.0449 15.1998 20.1358 14.9271 20.1358L14.918 20.1268Z" fill="white"/>
</svg>
