<svg width="30" height="29" viewBox="0 0 30 29" fill="none" xmlns="http://www.w3.org/2000/svg">
<path d="M29.1 19.3643L20.0181 3.63416C18.9853 1.84526 17.0611 0.733887 14.9962 0.733887C12.9321 0.733887 11.0079 1.8449 9.9744 3.63344L0.774052 19.5684C-0.258017 21.3566 -0.258017 23.5783 0.774052 25.3658C1.8072 27.1547 3.73174 28.266 5.79624 28.266H24.1998C24.2224 28.266 24.245 28.2657 24.2676 28.265C27.4306 28.2301 30 25.6331 30 22.4676C30 21.3652 29.6889 20.2926 29.1 19.3643ZM24.2056 25.754L24.1998 27.01V25.754H5.7966C4.62637 25.754 3.53545 25.1239 2.9498 24.1098C2.36486 23.0967 2.36486 21.8375 2.9498 20.8241L12.1498 4.8898C12.7358 3.87567 13.8267 3.24588 14.9966 3.24588C16.1668 3.24588 17.2574 3.87603 17.843 4.89016L26.939 20.6439C26.9486 20.6612 26.9591 20.6777 26.9698 20.6942C27.3089 21.2235 27.4884 21.8368 27.4884 22.4676C27.488 24.2655 26.0264 25.7393 24.2056 25.754ZM14.9998 17.8854C15.4204 17.8854 16.0093 17.5972 16.0448 16.8404L16.4037 9.90301C16.4037 9.12789 15.7749 8.49989 14.9998 8.49989C14.2247 8.49989 13.596 9.12789 13.596 9.90301L13.9548 16.8404C13.9961 17.6364 14.529 17.8854 14.9998 17.8854ZM14.9998 19.065C14.5294 19.065 14.0664 19.2591 13.7295 19.5928C13.3957 19.9266 13.2055 20.3899 13.2055 20.8592C13.2055 21.3329 13.3957 21.7962 13.7295 22.13C14.0664 22.4637 14.5261 22.6535 14.9998 22.6535C15.4732 22.6535 15.9328 22.4637 16.2666 22.13C16.6035 21.7962 16.7941 21.3329 16.7941 20.8592C16.7941 20.3895 16.6039 19.9262 16.2666 19.5928C15.9328 19.2591 15.4699 19.065 14.9998 19.065Z" fill="white"/>
</svg>
